<svg xmlns="http://www.w3.org/2000/svg" viewBox="0 0 448 512" width="35" height="35" fill="currentColor">
  <path d="M100.28 448H7.4V149.1h92.88zm-46.44-330.7C24 117.3 0 93.24 0 64.53A53.72 53.72 0 0 1 53.59 11c29.72 0 53.7 23.83 53.7 53.53 0 28.71-23.93 52.73-53.7 52.73zM447.9 448h-92.68V302.4c0-34.7-12.4-58.4-43.3-58.4-23.6 0-37.6 15.8-43.8 31.1-2.3 5.5-2.9 13.2-2.9 20.8V448h-92.78s1.2-260.8 0-287.9h92.7v40.8c-.2.3-.5.6-.7.9h.7v-.9c12.3-19 34.4-46.3 83.6-46.3 61 0 106.9 39.8 106.9 125.3V448z"/>
</svg>
